<svg xmlns="http://www.w3.org/2000/svg"
     viewBox="0 0 512 509.64"
     clip-rule="evenodd"
     fill-rule="evenodd"
     image-rendering="optimizeQuality"
     shape-rendering="geometricPrecision"
     text-rendering="geometricPrecision"
>
  <path fill="none" d="M115.612 0h280.775C459.974 0 512 52.026 512 115.612v278.415c0 63.587-52.026 115.612-115.613 115.612H115.612C52.026 509.639 0 457.614 0 394.027V115.612C0 52.026 52.026 0 115.612 0z"/>
  <path fill="#fcf2ee" fill-rule="nonzero" d="m116.74 330.49 90.189-50.603 1.5159-4.3946-1.5159-2.444-4.3946-1e-3 -15.073-0.92937-51.531-1.3934-44.691-1.8563-43.299-2.3216-10.894-2.3204-10.212-13.463 1.0518-6.715 9.1615-6.1591 13.123 1.1449 28.999 1.98 43.514 3.0024 31.569 1.8575 46.766 4.8587h7.4252l1.053-3.0012-2.5383-1.8575-1.9812-1.8575-45.031-30.516-48.746-32.25-25.533-18.57-13.803-9.4076-6.9636-8.8211-3.0012-19.25 12.535-13.803 16.836 1.1449 4.3016 1.1461 17.054 13.121 36.427 28.196 47.568 35.035 6.9636 5.7881 2.7857-1.98 0.3404-1.3934-3.1261-5.2297-25.873-46.766-27.607-47.568-12.288-19.715-3.2498-11.822c-1.1449-4.8587-1.98-8.9435-1.98-13.927l14.268-19.375 7.8917-2.5383 19.034 2.5383 8.0166 6.9636 11.822 27.051 19.158 42.587 29.712 57.907 8.6974 17.177 4.642 15.908 1.7339 4.8587 2.9987-1e-3v-2.7857l2.4453-32.621 4.5183-40.049 4.3946-51.531 1.5171-14.515 7.1791-17.395 14.268-9.4076 11.141 5.324 9.1615 13.121-1.2686 8.4807-5.4477 35.406-10.677 55.461-6.9636 37.139h4.0567l4.6432-4.642 18.786-24.945 31.569-39.461 13.927-15.66 16.249-17.301 10.429-8.2334 19.714-0.0012 14.515 21.572-6.4983 22.284-20.303 25.749-16.836 21.819-24.142 32.498-15.072 25.997 1.3934 2.0743 3.5902-0.3404 54.533-11.607 29.463-5.3228 35.16-6.0342 15.908 7.4276 1.7338 7.5513-6.2522 15.444-37.604 9.2852-44.103 8.8211-65.676 15.537-0.80448 0.58775 0.92815 1.1449 29.588 2.7857 12.657 0.68081h30.98l57.69 4.3028 15.072 9.966 9.0378 12.195-1.5159 9.2852-23.212 11.822-31.321-7.4276-73.103-17.394-25.07-6.2522-3.4653-1e-3v2.0742l20.891 20.427 38.284 34.571 47.941 44.567 2.4453 11.019-6.1591 8.6962-6.4983-0.92816-42.123-31.693-16.249-14.266-36.799-30.982-2.444-1e-3v3.2498l8.4807 12.411 44.784 67.315 2.3204 20.643-3.2485 6.7162-11.607 4.0542-12.752-2.3204-26.214-36.8-27.051-41.441-21.819-37.139-2.6608 1.5159-12.875 138.68-6.0354 7.0872-13.927 5.324-11.606-8.8211-6.1591-14.268 6.1591-28.196 7.4276-36.798 6.0342-29.248 5.4477-36.335 3.2498-12.071-0.21673-0.80447-2.6608 0.3404-27.391 37.604-41.658 56.298-32.962 35.283-7.8917 3.1261-13.681-7.0885 1.2698-12.657 7.6444-11.265 45.62-58.03 27.514-35.964 17.765-20.768-0.12367-3.0012h-1.0518l-121.17 78.674-21.573 2.7857-9.2852-8.6974 1.1461-14.268 4.3946-4.642 36.427-25.07-0.12367 0.1249z"/>
</svg>
